<svg width="45" height="45" viewBox="0 0 45 45" fill="none" xmlns="http://www.w3.org/2000/svg">
<g clip-path="url(#clip0)">
<path d="M44.7351 25.549L41.77 13.4221C41.6249 11.5989 40.3127 10.0398 38.5147 9.59976C37.2908 9.298 36.0038 9.54947 34.9818 10.285C33.9598 11.0205 33.3163 12.1584 33.2154 13.4095L33.1901 13.6987L29.5058 8.70705C27.9854 6.64502 25.9477 5.67688 23.7712 5.99121C21.0648 6.38098 18.3899 8.83278 17.2606 11.951C16.8884 12.9883 16.6298 14.0822 16.4784 15.22C15.2545 14.6982 13.9675 14.6039 12.6994 14.9874C10.0813 15.7796 7.8102 18.6086 7.16671 21.8588C6.24564 26.5235 7.55785 32.018 10.668 36.5633C13.6899 40.9703 18.0303 43.969 22.5726 44.7863C23.3612 44.9246 24.1498 44.9937 24.9383 44.9937C28.4523 44.9937 31.859 43.6107 34.3825 41.096C35.4928 39.9895 36.2688 38.6505 36.6915 37.2171C38.3128 36.7959 39.8647 36.0792 41.2463 35.0671C44.2493 32.8793 45.612 29.145 44.7351 25.549ZM39.3916 32.5398C38.6661 33.0679 37.8712 33.4891 37.0384 33.8097C36.9564 32.917 36.7419 32.0306 36.3823 31.1693L31.6193 19.627C31.1966 17.8479 29.6636 16.5025 27.8214 16.3391C26.566 16.2259 25.3295 16.666 24.4336 17.5461C23.5315 18.4262 23.071 19.6459 23.1593 20.9032L23.1782 21.1924L19.4624 17.4895C19.4813 15.9116 19.7337 14.3902 20.232 13.0197C20.9575 11.0143 22.6798 9.32943 24.2255 9.10311C24.3453 9.08425 24.4589 9.07796 24.5724 9.07796C25.443 9.07796 26.2253 9.56833 26.9634 10.5679L33.146 18.9543C33.5371 19.4824 34.2184 19.715 34.8493 19.5327C35.4802 19.3567 35.9407 18.8034 35.9912 18.1496L36.3571 13.6609C36.395 13.2083 36.6662 12.9443 36.8239 12.8311C36.9817 12.7179 37.316 12.5419 37.7639 12.6488C38.256 12.7682 38.6093 13.202 38.6282 13.7112C38.6345 13.8181 38.6472 13.925 38.6724 14.0256L41.669 26.2846C42.2494 28.6484 41.3536 31.1002 39.3916 32.5398ZM32.1618 38.8768C29.8339 41.1966 26.3767 42.2716 23.134 41.6932C19.4182 41.0268 15.8223 38.5122 13.2735 34.7967C10.6239 30.9367 9.50094 26.3286 10.258 22.4749C10.6744 20.3814 12.1127 18.4577 13.6142 18.005C13.8413 17.9359 14.0684 17.9045 14.2956 17.9045C15.04 17.9045 15.7844 18.2817 16.5478 19.0423L23.9353 26.404C24.4021 26.8692 25.1087 26.995 25.708 26.7247C26.3073 26.4543 26.6732 25.8382 26.6291 25.1844L26.3073 20.6957C26.2758 20.2431 26.5029 19.9413 26.648 19.803C26.7868 19.6647 27.0959 19.4384 27.5438 19.4824C28.0485 19.5264 28.4649 19.9036 28.5595 20.4003C28.5785 20.5071 28.61 20.6077 28.6479 20.702L33.4677 32.3701C34.3951 34.6081 33.8778 37.1668 32.1618 38.8768Z" fill="black"/>
<path d="M2.62442 9.90152C1.97462 9.32314 0.977846 9.38601 0.397445 10.0335C-0.182956 10.6811 -0.119869 11.6744 0.529927 12.2527L3.82307 15.1572C4.12589 15.4212 4.4981 15.5532 4.87032 15.5532C5.30562 15.5532 5.74092 15.3772 6.05005 15.0252C6.63045 14.3776 6.56736 13.3843 5.91756 12.806L2.62442 9.90152Z" fill="black"/>
<path d="M8.71865 10.2033C9.02778 10.593 9.48832 10.8005 9.95516 10.8005C10.2958 10.8005 10.6428 10.6873 10.933 10.461C11.6144 9.92037 11.7279 8.93336 11.1854 8.2544L8.45369 4.81559C7.91114 4.13663 6.92067 4.02347 6.23933 4.56413C5.55799 5.10478 5.44444 6.09179 5.98699 6.77075L8.71865 10.2033Z" fill="black"/>
<path d="M14.4028 6.17353C14.6867 6.70161 15.2292 6.99708 15.7907 6.99708C16.043 6.99708 16.3017 6.93421 16.5414 6.80848C17.3048 6.39356 17.595 5.44427 17.1786 4.6773L15.0841 0.823569C14.6677 0.0628814 13.7151 -0.220019 12.9455 0.188615C12.1821 0.603535 11.8919 1.55282 12.3083 2.3198L14.4028 6.17353Z" fill="black"/>
</g>
<defs>
<clipPath id="clip0">
<rect width="45" height="45" fill="white"/>
</clipPath>
</defs>
</svg>
