<svg width="45" height="35" viewBox="0 0 45 35" fill="none" xmlns="http://www.w3.org/2000/svg">
<g clip-path="url(#clip0)">
<path d="M28.2692 9.62113C27.1439 9.00202 25.812 8.50389 24.2806 8.26905V1.77906C24.2806 0.797017 23.4829 0 22.5 0C21.5171 0 20.7194 0.797017 20.7194 1.77906V8.24059C19.0741 8.46119 17.6567 8.99491 16.4672 9.6496C7.70655 10.6672 0 13.8838 0 19.043C0 20.1531 0.363248 21.1708 1.0114 22.0959C0.363248 23.0281 0 24.0457 0 25.1558C0 31.4822 11.5954 34.898 22.5 34.898C33.4046 34.898 45 31.4822 45 25.1558C45 24.0457 44.6368 23.0281 43.9886 22.103C44.6368 21.1779 45 20.1603 45 19.0501C45 13.8339 37.1368 10.6032 28.2692 9.62113ZM41.4387 25.1558C41.4387 27.675 34.0598 31.3398 22.5 31.3398C10.9402 31.3398 3.56125 27.675 3.56125 25.1558C3.56125 24.9637 3.61111 24.7645 3.68946 24.5652C7.97721 27.3334 15.3846 28.7851 22.5 28.7851C29.6154 28.7851 37.0157 27.3334 41.3105 24.5652C41.3889 24.7716 41.4387 24.9637 41.4387 25.1558ZM3.56125 19.043C3.56125 17.4347 6.55271 15.371 11.7094 14.083C11.2108 14.9227 11.4886 16.0044 12.3219 16.5096C13.1624 17.0149 14.2521 16.7445 14.765 15.9119C14.8575 15.7553 16.9017 12.5103 20.8761 11.8129C21.1538 12.432 21.7735 12.8661 22.5 12.8661C23.2123 12.8661 23.8177 12.4463 24.1026 11.8485C27.9416 12.6099 29.9145 15.7482 30.0142 15.9119C30.349 16.4669 30.933 16.7729 31.5385 16.7729C31.8519 16.7729 32.1652 16.6947 32.4501 16.5239C33.2977 16.0186 33.5755 14.9298 33.0698 14.083C33.0627 14.0759 33.0484 14.0474 33.0342 14.0261C38.3476 15.3141 41.4387 17.4205 41.4387 19.0501C41.4387 21.5693 34.0598 25.2341 22.5 25.2341C10.9402 25.227 3.56125 21.5693 3.56125 19.043Z" fill="black"/>
</g>
<defs>
<clipPath id="clip0">
<rect width="45" height="34.898" fill="white"/>
</clipPath>
</defs>
</svg>
