<svg width="45" height="44" viewBox="0 0 45 44" fill="none" xmlns="http://www.w3.org/2000/svg">
<g clip-path="url(#clip0)">
<path d="M43.1314 23.7661C44.2068 22.6754 44.8246 21.4322 44.8246 20.0288C44.8246 15.0483 36.8771 10.6017 26.9771 9.57202C27.0153 10.1822 27.0229 10.8305 27.0153 11.5017C27.0076 12.1119 26.9847 12.7449 26.9466 13.4085C35.6644 14.4076 41.011 18.2593 41.011 20.0288C41.011 20.4788 40.6144 21.0356 39.8288 21.6152C39.3102 22.0042 38.6008 22.4008 37.7466 22.7898C36.9305 23.1559 35.9771 23.5144 34.8636 23.8347C32.4153 24.5517 29.2576 25.1085 25.4364 25.2915C24.5441 25.3373 23.6288 25.3678 22.6678 25.3678C21.9508 25.3678 21.2568 25.3525 20.578 25.3296C16.3602 25.1771 12.9203 24.5669 10.3042 23.789C9.19068 23.4534 8.24492 23.0873 7.43644 22.7135C6.57458 22.3169 5.88814 21.9051 5.38475 21.5085C4.69831 20.9669 4.3322 20.4483 4.3322 20.0288C4.3322 18.4729 8.51186 15.2847 15.4907 13.8737C14.8881 13.3246 14.3466 12.7907 13.8661 12.272C13.3398 11.7076 12.8898 11.1585 12.5008 10.6322C5.51441 12.4703 0.526271 16.078 0.526271 20.0288C0.526271 21.3635 1.07542 22.5534 2.0517 23.5983C0.747458 24.7576 0 26.1076 0 27.6559C0 31.683 5.07966 34.4212 11.7915 35.7864C12.1653 35.8627 12.539 35.9313 12.9203 36C13.3017 36.0686 13.6831 36.1297 14.0644 36.1907C13.6297 37.3347 13.4695 38.4788 13.7746 39.5466C14.3847 41.7127 16.5051 43.1695 18.8008 43.1695C19.1898 43.1695 19.5864 43.1237 19.9754 43.0398C21.1576 42.7729 24.1246 41.6212 25.078 36.7551C25.467 36.7398 25.8636 36.7169 26.2525 36.6941C26.6492 36.6712 27.0381 36.6407 27.4347 36.6102C36.778 35.8093 45 32.7737 45 27.6559C45 26.1839 44.3212 24.8873 43.1314 23.7661ZM26.5119 32.85C26.1381 32.8729 25.7568 32.8958 25.3678 32.911C24.4449 32.9568 23.4992 32.9873 22.5 32.9873C22.1797 32.9873 21.8746 32.972 21.5542 32.972C21.4017 32.972 21.2415 32.9644 21.089 32.9644C19.3424 32.9263 17.7025 32.8119 16.2076 32.6441C15.7576 32.5907 15.3229 32.5296 14.8958 32.4686C14.4534 32.4076 14.0339 32.3313 13.6144 32.2627C7.23051 31.1263 3.81356 28.9525 3.81356 27.6559C3.81356 27.1602 4.31695 26.5424 5.27034 25.9017C8.19153 27.3813 12.1881 28.3652 16.5203 28.8458C17.0237 28.8991 17.5271 28.9449 18.0381 28.9907C18.5644 29.0364 19.0907 29.0746 19.6169 29.0974C20.6314 29.1508 21.6534 29.1813 22.6754 29.1813C23.461 29.1813 24.2466 29.1661 25.0322 29.128C25.4136 29.1127 25.7949 29.0898 26.1763 29.0669C26.5576 29.0441 26.939 29.0135 27.3203 28.983C32.1254 28.5941 36.6407 27.5873 39.8822 25.9932C40.7364 26.5958 41.1864 27.183 41.1864 27.6483C41.1864 29.1813 36.4424 31.9347 27.6559 32.7508C27.2822 32.789 26.9008 32.8271 26.5119 32.85ZM19.1364 39.3102C19.0602 39.3254 18.9839 39.3407 18.9076 39.3407C18.8695 39.3407 18.8237 39.3483 18.7856 39.3483C18.1373 39.3483 17.5653 38.9517 17.4432 38.5017C17.3212 38.0746 17.5653 37.4186 18.0381 36.633C19.0602 36.7093 20.0975 36.7627 21.1424 36.7856C20.6542 38.433 19.8229 39.1576 19.1364 39.3102Z" fill="black"/>
<path d="M16.6042 11.7305C17.2373 12.3331 17.8856 12.8898 18.511 13.3932C19.7771 14.4153 20.9441 15.2237 21.6458 15.6814C21.9661 15.8873 22.3246 15.9941 22.6907 15.9941C22.9729 15.9941 23.2551 15.9331 23.522 15.8034C24.1246 15.5136 24.5288 14.9263 24.5898 14.2551C24.6203 13.8966 24.6508 13.5458 24.6661 13.2025C24.7119 12.5314 24.7271 11.8983 24.7271 11.2958C24.7271 10.6169 24.7119 9.9839 24.6661 9.38136C24.1246 1.56356 19.9754 0.266949 18.5339 0.0533898C18.2746 0.0152542 18.0229 0 17.7636 0C15.3152 0 13.0881 1.67797 12.6229 4.01186C12.2186 6.0178 13.3703 8.15339 15.0102 10.0602C15.5059 10.6398 16.0475 11.2042 16.6042 11.7305ZM17.7559 3.81356C17.8322 3.81356 17.9085 3.82119 17.9847 3.82881C19.022 3.98136 20.5017 5.38475 20.8449 9.38898C20.8754 9.71695 20.8983 10.0525 20.9059 10.411C20.5169 10.0907 20.1432 9.77034 19.7847 9.45C17.6949 7.57373 16.1695 5.68983 16.3525 4.76695C16.4593 4.27881 17.0542 3.81356 17.7559 3.81356Z" fill="black"/>
</g>
<defs>
<clipPath id="clip0">
<rect width="45" height="43.1619" fill="white"/>
</clipPath>
</defs>
</svg>
