<svg width="45" height="49" viewBox="0 0 45 49" fill="none" xmlns="http://www.w3.org/2000/svg">
<g clip-path="url(#clip0)">
<path d="M37.7565 39.0199C42.2052 34.9081 45 29.0276 45 22.5038C45 10.0919 34.9081 0 22.4962 0C10.0842 0 0 10.0919 0 22.5038C0 29.0276 2.79479 34.9081 7.24349 39.0199L4.92343 45.9342C4.58652 46.9372 5.13017 48.0245 6.13323 48.3614C6.33231 48.4303 6.53905 48.4609 6.73813 48.4609C7.53446 48.4609 8.28484 47.9556 8.55283 47.1516L10.4518 41.4855C12.4502 42.7565 14.6631 43.7289 17.0214 44.3185V44.487C17.0214 46.6769 18.8055 48.4609 20.9954 48.4609H24.0046C26.1945 48.4609 27.9786 46.6769 27.9786 44.487V44.3185C30.3369 43.7289 32.5498 42.7565 34.5482 41.4855L36.4472 47.1516C36.7152 47.9556 37.4579 48.4609 38.2619 48.4609C38.4609 48.4609 38.6677 48.4303 38.8668 48.3614C39.8698 48.0245 40.4058 46.9372 40.0766 45.9342L37.7565 39.0199ZM24.0046 44.6325H20.9954C20.9188 44.6325 20.8499 44.5712 20.8499 44.487V34.1348C20.8499 34.0582 20.9112 33.9893 20.9954 33.9893H24.0046C24.0812 33.9893 24.1501 34.0505 24.1501 34.1348V44.487C24.1501 44.5712 24.0812 44.6325 24.0046 44.6325ZM20.9571 18.4992C20.9571 17.6493 21.6539 16.9525 22.5038 16.9525C23.3538 16.9525 24.0505 17.6417 24.0505 18.4992C24.0505 19.3568 23.3538 20.0459 22.5038 20.0459C21.6539 20.0459 20.9571 19.3492 20.9571 18.4992ZM24.4104 30.2067V23.5145C26.4319 22.7412 27.8714 20.7887 27.8714 18.4992C27.8714 15.536 25.4594 13.124 22.4962 13.124C19.5329 13.124 17.121 15.536 17.121 18.4992C17.121 20.7887 18.5605 22.7412 20.5819 23.5145V30.2067C18.5911 30.4135 17.0214 32.0904 17.0214 34.1348V40.3446C9.3951 38.0015 3.82848 30.8882 3.82848 22.5038C3.82848 12.2052 12.2052 3.82848 22.4962 3.82848C32.7871 3.82848 41.1639 12.2052 41.1639 22.5038C41.1639 30.8959 35.5972 38.0092 27.9709 40.3522V34.1424C27.9786 32.0904 26.4089 30.4135 24.4104 30.2067Z" fill="black"/>
<path d="M22.4962 20.0459C23.3504 20.0459 24.0429 19.3534 24.0429 18.4992C24.0429 17.645 23.3504 16.9525 22.4962 16.9525C21.6419 16.9525 20.9495 17.645 20.9495 18.4992C20.9495 19.3534 21.6419 20.0459 22.4962 20.0459Z" fill="white"/>
</g>
<defs>
<clipPath id="clip0">
<rect width="45" height="48.4609" fill="white"/>
</clipPath>
</defs>
</svg>
