<svg width="36" height="60" viewBox="0 0 36 60" fill="none" xmlns="http://www.w3.org/2000/svg">
<g clip-path="url(#clip0)">
<path d="M34.1296 41.7564V12.9836C35.3644 11.7125 36 10.2961 36 8.88878C36 4.47617 29.8169 0 17.9955 0C6.17402 0 0 4.47617 0 8.88878C0 10.2961 0.635561 11.7034 1.87037 12.9745V41.7473C0.635561 43.0275 0 44.4439 0 45.8421C0 47.2494 0.635561 48.6567 1.87037 49.9279V55.2393C1.87037 55.9929 2.47869 56.6013 3.23228 56.6013C3.98588 56.6013 4.5942 55.9929 4.5942 55.2393V51.9526C7.34527 53.4688 11.3311 54.513 16.461 54.6946V58.4716C16.461 59.2252 17.0694 59.8335 17.8229 59.8335C18.5765 59.8335 19.1849 59.2252 19.1849 58.4716V54.7037C24.3148 54.5675 28.3097 53.5687 31.1153 52.0979V55.2393C31.1153 55.9929 31.7236 56.6013 32.4772 56.6013C33.2308 56.6013 33.8391 55.9929 33.8391 55.2393V50.2093C35.2646 48.8656 36 47.3584 36 45.8512C36 44.4348 35.3644 43.0275 34.1296 41.7564ZM31.4603 8.88878C31.4603 10.4232 26.3485 13.2378 18.0045 13.2378C9.65145 13.2469 4.53972 10.4232 4.53972 8.88878C4.53972 7.35435 9.65145 4.53972 17.9955 4.53972C26.3485 4.53972 31.4603 7.35435 31.4603 8.88878ZM7.29987 16.1977V19.2303C7.29987 19.9839 7.9082 20.5922 8.66179 20.5922C9.41538 20.5922 10.0237 19.9839 10.0237 19.2303V16.9695C11.9122 17.3962 14.0641 17.6595 16.461 17.7412V20.7556C16.461 21.5092 17.0694 22.1175 17.8229 22.1175C18.5765 22.1175 19.1849 21.5092 19.1849 20.7556V17.7503C21.5818 17.6868 23.7337 17.4416 25.6222 17.0421V19.2303C25.6222 19.9839 26.2305 20.5922 26.9841 20.5922C27.7377 20.5922 28.346 19.9839 28.346 19.2303V16.3067C29.481 15.9253 30.5069 15.4986 31.3967 15.0083V28.7274V46.1236C31.1607 46.7955 30.0984 47.6489 28.346 48.3934V45.6878C28.346 44.9342 27.7377 44.3258 26.9841 44.3258C26.2305 44.3258 25.6222 44.9342 25.6222 45.6878V49.3014C23.8335 49.7644 21.6636 50.0913 19.1849 50.173V47.2131C19.1849 46.4595 18.5765 45.8512 17.8229 45.8512C17.0694 45.8512 16.461 46.4595 16.461 47.2131V50.1639C13.9642 50.055 11.7942 49.6918 10.0237 49.2106V45.6878C10.0237 44.9342 9.41538 44.3258 8.66179 44.3258C7.9082 44.3258 7.29987 44.9342 7.29987 45.6878V48.2482C5.73821 47.5309 4.80303 46.7501 4.5942 46.1145V28.7183V15.0083C5.39319 15.4441 6.29206 15.8436 7.29987 16.1977Z" fill="black"/>
</g>
<defs>
<clipPath id="clip0">
<rect width="36" height="59.8426" fill="white"/>
</clipPath>
</defs>
</svg>
