<svg width="45" height="41" viewBox="0 0 45 41" fill="none" xmlns="http://www.w3.org/2000/svg">
<g clip-path="url(#clip0)">
<path d="M45 19.0598C45 13.8462 37.1368 10.6054 28.2621 9.62963C27.1368 9.00997 25.8048 8.5114 24.2806 8.27635V1.78063C24.2806 0.797721 23.4829 0 22.5 0C21.5171 0 20.7194 0.797721 20.7194 1.78063V8.24786C19.0741 8.46866 17.6567 8.99573 16.4672 9.65812C7.70655 10.6766 0 13.896 0 19.0598C0 21.3746 1.55271 23.2977 4.04558 24.8077C1.55271 26.3177 0 28.2407 0 30.5556C0 36.8875 11.5954 40.3063 22.5 40.3063C33.4046 40.3063 45 36.8875 45 30.5556C45 28.2407 43.4473 26.3177 40.9544 24.8077C43.4473 23.2977 45 21.3746 45 19.0598ZM22.5 25.2493C10.9402 25.2493 3.56125 21.5883 3.56125 19.0598C3.56125 17.4501 6.55271 15.3846 11.7094 14.0954C11.2108 14.943 11.4886 16.0328 12.3291 16.5313C12.614 16.7023 12.9274 16.7806 13.2407 16.7806C13.8462 16.7806 14.4373 16.4672 14.7721 15.9117C14.7934 15.8761 16.8447 12.5285 20.8761 11.8162C21.1538 12.4359 21.7735 12.8632 22.5 12.8632C23.2123 12.8632 23.8177 12.443 24.1026 11.8447C27.9416 12.6068 29.9074 15.7479 30.0142 15.9117C30.5199 16.7521 31.6097 17.0228 32.4501 16.5242C33.2977 16.0185 33.5684 14.9288 33.0698 14.0812C33.0627 14.0741 33.0484 14.0456 33.0342 14.0242C38.3476 15.3134 41.4387 17.4217 41.4387 19.0527C41.4387 21.5883 34.0598 25.2493 22.5 25.2493ZM41.4387 30.5556C41.4387 33.0769 34.0598 36.745 22.5 36.745C10.9402 36.745 3.56125 33.0769 3.56125 30.5556C3.56125 29.3519 5.23504 27.8989 8.23362 26.6952C12.3433 28.0912 17.4929 28.8105 22.5 28.8105C27.5071 28.8105 32.6638 28.0912 36.7664 26.6952C39.765 27.8989 41.4387 29.3519 41.4387 30.5556Z" fill="black"/>
</g>
<defs>
<clipPath id="clip0">
<rect width="45" height="40.3063" fill="white"/>
</clipPath>
</defs>
</svg>
