<svg width="45" height="21" viewBox="0 0 45 21" fill="none" xmlns="http://www.w3.org/2000/svg">
<g clip-path="url(#clip0)">
<path d="M22.5 20.6909C33.4046 20.6909 45 17.2721 45 10.9402C45 5.7265 37.1368 2.48575 28.2621 1.50997C26.6952 0.648148 24.7507 0 22.3932 0C20.0142 0 18.0484 0.662393 16.4672 1.53846C7.70655 2.54986 0 5.77635 0 10.9402C0 17.2721 11.5954 20.6909 22.5 20.6909ZM11.7094 5.97578C11.2108 6.81624 11.4886 7.89886 12.3219 8.40456C13.1624 8.91026 14.2521 8.6396 14.765 7.80627C14.8718 7.62821 17.4145 3.56125 22.3932 3.56125C27.3647 3.56125 29.9003 7.61396 30.0142 7.79915C30.349 8.3547 30.933 8.66097 31.5385 8.66097C31.8519 8.66097 32.1652 8.58262 32.4501 8.41168C33.2977 7.90598 33.5755 6.81624 33.0698 5.96866C33.0627 5.96154 33.0484 5.93305 33.0342 5.91168C38.3476 7.20085 41.4387 9.30912 41.4387 10.9402C41.4387 13.4615 34.0598 17.1296 22.5 17.1296C10.9402 17.1296 3.56125 13.4615 3.56125 10.9402C3.56125 9.33048 6.55271 7.26496 11.7094 5.97578Z" fill="black"/>
<path d="M22.5 6.63104C23.0192 6.63104 23.4402 6.21011 23.4402 5.69087C23.4402 5.17163 23.0192 4.7507 22.5 4.7507C21.9807 4.7507 21.5598 5.17163 21.5598 5.69087C21.5598 6.21011 21.9807 6.63104 22.5 6.63104Z" fill="black"/>
</g>
<defs>
<clipPath id="clip0">
<rect width="45" height="20.6909" fill="white"/>
</clipPath>
</defs>
</svg>
