<svg width="45" height="48" viewBox="0 0 45 48" fill="none" xmlns="http://www.w3.org/2000/svg">
<g clip-path="url(#clip0)">
<path d="M8.6236 37.198V41.4326C12.5913 42.3385 16.6011 42.5351 18.4551 42.5772V39.3258C17.809 38.9677 17.3666 38.2865 17.3666 37.493V30.7795C17.3666 29.9859 17.809 29.3048 18.4551 28.9466V25.0421C16.6362 25.014 12.7037 24.8385 8.6236 23.9536V26.8609C9.2486 27.2261 9.67697 27.9003 9.67697 28.6727V35.3862C9.67697 36.1587 9.2486 36.8329 8.6236 37.198Z" fill="black"/>
<path d="M20.5618 39.2837V42.5772C22.3946 42.5421 26.3693 42.3525 30.323 41.4677V37.198C29.698 36.8328 29.2696 36.1587 29.2696 35.3862V28.6727C29.2696 27.8932 29.698 27.2261 30.323 26.8609V23.9677C26.2921 24.8385 22.4017 25.007 20.5618 25.0421V28.9887C21.1727 29.3609 21.58 30.0211 21.58 30.7865V37.5C21.58 38.2514 21.1657 38.9115 20.5618 39.2837Z" fill="black"/>
<path d="M6.51685 26.8539V23.4199C4.13624 22.7458 1.83286 21.7977 0 20.4494V37.2753C1.54494 38.9466 3.93258 40.0913 6.50983 40.8778V37.198C5.88483 36.8329 5.45646 36.1587 5.45646 35.3862V28.6727C5.46348 27.8933 5.89185 27.2191 6.51685 26.8539Z" fill="black"/>
<path d="M19.5155 44.691C19.4663 44.691 19.3258 44.691 19.0941 44.691C16.7837 44.691 5.9059 44.4452 0 40.0772V40.0983C0 44.8525 10.0492 47.4157 19.5014 47.4157C28.9396 47.4157 38.9677 44.8595 39.0098 40.1264C32.507 44.8736 20.1124 44.698 19.5155 44.691Z" fill="black"/>
<path d="M32.4297 26.8539C33.0547 27.2191 33.4831 27.8933 33.4831 28.6657V35.3792C33.4831 36.1587 33.0547 36.8258 32.4297 37.191V40.9059C35.0281 40.1264 37.4438 38.9958 39.0168 37.3315V20.4424C37.1699 21.8048 34.8385 22.7598 32.4297 23.441V26.8539Z" fill="black"/>
<path d="M31.8469 14.8034C34.059 15.4845 35.2739 16.2359 35.4846 16.6994C35.014 17.7177 29.7753 20.1334 19.5014 20.1334C9.22753 20.1334 3.98876 17.7177 3.51826 16.6994C3.82725 16.0253 6.21489 14.7542 10.7444 13.9607C10.302 12.7107 10.5478 11.3413 11.3272 10.323C9.55056 10.5829 7.90028 10.9199 6.45365 11.3483C2.17697 12.5983 0 14.4031 0 16.6994C0 16.7837 0.00702247 16.868 0.0140449 16.9522H0V17.6545C5.13343 23.132 19.3399 22.9284 19.4803 22.9284C19.6699 22.9284 33.8834 23.125 39.0098 17.6545V16.9593H38.9958C39.0028 16.875 39.0098 16.7907 39.0098 16.7065C39.0098 15.1264 37.9775 13.7851 35.948 12.6896L34.389 13.4972L31.8469 14.8034Z" fill="black"/>
<path d="M23.5955 9.90168L36.3202 3.32163C37.184 2.87921 37.5211 1.81882 37.0716 0.955056C36.7627 0.344101 36.1517 0 35.5127 0C35.2388 0 34.9649 0.0632022 34.7051 0.196629L16.0253 9.85955L13.5815 11.1236C12.7177 11.566 12.3806 12.6264 12.8301 13.4902C12.8582 13.5463 12.9073 13.5885 12.9354 13.6447C13.2655 14.1433 13.8132 14.4382 14.3891 14.4382C14.6629 14.4382 14.9368 14.375 15.1966 14.2416L16.9663 13.3287L23.5955 9.90168Z" fill="black"/>
<path d="M33.42 11.6222L44.052 6.1236C44.9157 5.68118 45.2528 4.62079 44.8034 3.75702C44.4874 3.15309 43.8764 2.80899 43.2444 2.80899C42.9705 2.80899 42.6967 2.87219 42.4368 3.00562L28.1531 10.3933L22.4438 13.3427L21.3132 13.9256C20.4495 14.368 20.1124 15.4284 20.5618 16.2921C20.8708 16.8961 21.4888 17.2402 22.1208 17.2402C22.3947 17.2402 22.6686 17.177 22.9284 17.0435L28.729 14.0449L33.42 11.6222Z" fill="black"/>
</g>
<defs>
<clipPath id="clip0">
<rect width="45" height="47.4087" fill="white"/>
</clipPath>
</defs>
</svg>
